<svg width="113" height="48" viewBox="0 0 113 48" fill="none" xmlns="http://www.w3.org/2000/svg">
<path d="M38.368 20V4.544H45.616C46.832 4.544 47.824 4.776 48.592 5.24C49.376 5.704 49.96 6.336 50.344 7.136C50.728 7.936 50.92 8.848 50.92 9.872C50.92 10.912 50.696 11.832 50.248 12.632C49.816 13.432 49.192 14.056 48.376 14.504C47.576 14.936 46.624 15.152 45.52 15.152H41.608V20H38.368ZM41.608 12.584H44.848C45.776 12.584 46.472 12.344 46.936 11.864C47.416 11.368 47.656 10.704 47.656 9.872C47.656 8.976 47.432 8.296 46.984 7.832C46.536 7.352 45.864 7.112 44.968 7.112H41.608V12.584ZM56.9118 20.24C55.5518 20.24 54.4878 19.864 53.7198 19.112C52.9678 18.344 52.5918 17.224 52.5918 15.752V8.624H55.8318V15.68C55.8318 16.448 56.0158 17.008 56.3838 17.36C56.7518 17.696 57.3038 17.864 58.0398 17.864C58.5998 17.864 59.1118 17.752 59.5758 17.528C60.0558 17.304 60.4638 17.024 60.7998 16.688V8.624H64.0398V20H61.0398L60.9198 18.92C60.4398 19.304 59.8718 19.624 59.2158 19.88C58.5758 20.12 57.8078 20.24 56.9118 20.24ZM70.8057 20.24C69.9577 20.24 69.1497 20.176 68.3817 20.048C67.6137 19.936 66.9977 19.792 66.5337 19.616V16.928C67.0937 17.152 67.7257 17.328 68.4297 17.456C69.1337 17.568 69.7817 17.624 70.3737 17.624C71.1737 17.624 71.7337 17.576 72.0537 17.48C72.3897 17.384 72.5577 17.168 72.5577 16.832C72.5577 16.448 72.3017 16.168 71.7897 15.992C71.2937 15.816 70.5497 15.568 69.5577 15.248C68.5177 14.896 67.7177 14.472 67.1577 13.976C66.5977 13.48 66.3177 12.744 66.3177 11.768C66.3177 10.68 66.7097 9.848 67.4937 9.272C68.2937 8.68 69.5737 8.384 71.3337 8.384C72.0377 8.384 72.7017 8.44 73.3257 8.552C73.9497 8.648 74.4777 8.768 74.9097 8.912V11.576C74.4777 11.368 73.9817 11.216 73.4217 11.12C72.8617 11.008 72.3417 10.952 71.8617 10.952C71.1737 10.952 70.6217 11 70.2057 11.096C69.8057 11.192 69.6057 11.4 69.6057 11.72C69.6057 12.072 69.8217 12.32 70.2537 12.464C70.7017 12.608 71.3897 12.824 72.3177 13.112C73.2297 13.384 73.9417 13.68 74.4537 14C74.9657 14.32 75.3257 14.704 75.5337 15.152C75.7417 15.584 75.8457 16.128 75.8457 16.784C75.8457 19.088 74.1657 20.24 70.8057 20.24ZM78.0946 20V3.824H81.3346V9.584C81.7986 9.232 82.3666 8.944 83.0386 8.72C83.7106 8.496 84.4386 8.384 85.2226 8.384C86.7266 8.384 87.8226 8.736 88.5106 9.44C89.1986 10.144 89.5426 11.232 89.5426 12.704V20H86.3026V12.872C86.3026 12.104 86.1426 11.56 85.8226 11.24C85.5186 10.92 84.9426 10.76 84.0946 10.76C83.5986 10.76 83.0946 10.872 82.5826 11.096C82.0866 11.32 81.6706 11.6 81.3346 11.936V20H78.0946ZM97.7335 20.24C95.7655 20.24 94.2055 19.752 93.0535 18.776C91.9015 17.784 91.3255 16.288 91.3255 14.288C91.3255 12.48 91.8055 11.048 92.7655 9.992C93.7415 8.92 95.1895 8.384 97.1095 8.384C98.8695 8.384 100.214 8.848 101.142 9.776C102.086 10.688 102.557 11.888 102.557 13.376V15.44H94.3255C94.5015 16.352 94.9175 16.976 95.5735 17.312C96.2455 17.648 97.1895 17.816 98.4055 17.816C99.0135 17.816 99.6295 17.76 100.254 17.648C100.894 17.536 101.438 17.392 101.886 17.216V19.52C101.358 19.76 100.742 19.936 100.038 20.048C99.3335 20.176 98.5655 20.24 97.7335 20.24ZM94.3255 13.448H99.7255V12.824C99.7255 12.168 99.5335 11.656 99.1495 11.288C98.7655 10.904 98.1175 10.712 97.2055 10.712C96.1335 10.712 95.3815 10.928 94.9495 11.36C94.5335 11.792 94.3255 12.488 94.3255 13.448ZM104.813 20V8.624H107.813L107.957 9.8C108.469 9.48 109.101 9.192 109.853 8.936C110.621 8.664 111.373 8.48 112.109 8.384V10.832C111.677 10.896 111.205 10.992 110.693 11.12C110.181 11.248 109.693 11.392 109.229 11.552C108.765 11.712 108.373 11.88 108.053 12.056V20H104.813ZM38.368 44V28.544H45.616C46.832 28.544 47.824 28.776 48.592 29.24C49.376 29.704 49.96 30.336 50.344 31.136C50.728 31.936 50.92 32.848 50.92 33.872C50.92 34.912 50.696 35.832 50.248 36.632C49.816 37.432 49.192 38.056 48.376 38.504C47.576 38.936 46.624 39.152 45.52 39.152H41.608V44H38.368ZM41.608 36.584H44.848C45.776 36.584 46.472 36.344 46.936 35.864C47.416 35.368 47.656 34.704 47.656 33.872C47.656 32.976 47.432 32.296 46.984 31.832C46.536 31.352 45.864 31.112 44.968 31.112H41.608V36.584ZM56.9118 44.24C55.5518 44.24 54.4878 43.864 53.7198 43.112C52.9678 42.344 52.5918 41.224 52.5918 39.752V32.624H55.8318V39.68C55.8318 40.448 56.0158 41.008 56.3838 41.36C56.7518 41.696 57.3038 41.864 58.0398 41.864C58.5998 41.864 59.1118 41.752 59.5758 41.528C60.0558 41.304 60.4638 41.024 60.7998 40.688V32.624H64.0398V44H61.0398L60.9198 42.92C60.4398 43.304 59.8718 43.624 59.2158 43.88C58.5758 44.12 57.8078 44.24 56.9118 44.24ZM69.9657 44.24C68.8617 44.24 68.0537 43.984 67.5417 43.472C67.0457 42.96 66.7977 42.144 66.7977 41.024V27.824H70.0377V40.76C70.0377 41.16 70.1177 41.44 70.2777 41.6C70.4377 41.744 70.6697 41.816 70.9737 41.816C71.3897 41.816 71.7657 41.76 72.1017 41.648V43.88C71.4937 44.12 70.7817 44.24 69.9657 44.24ZM76.5048 44.24C75.4008 44.24 74.5928 43.984 74.0808 43.472C73.5848 42.96 73.3368 42.144 73.3368 41.024V27.824H76.5768V40.76C76.5768 41.16 76.6568 41.44 76.8168 41.6C76.9768 41.744 77.2088 41.816 77.5128 41.816C77.9288 41.816 78.3048 41.76 78.6408 41.648V43.88C78.0328 44.12 77.3208 44.24 76.5048 44.24ZM86.4132 44.24C84.4452 44.24 82.8852 43.752 81.7332 42.776C80.5812 41.784 80.0052 40.288 80.0052 38.288C80.0052 36.48 80.4852 35.048 81.4452 33.992C82.4212 32.92 83.8692 32.384 85.7892 32.384C87.5492 32.384 88.8932 32.848 89.8212 33.776C90.7652 34.688 91.2372 35.888 91.2372 37.376V39.44H83.0052C83.1812 40.352 83.5972 40.976 84.2532 41.312C84.9252 41.648 85.8692 41.816 87.0852 41.816C87.6932 41.816 88.3092 41.76 88.9332 41.648C89.5732 41.536 90.1172 41.392 90.5652 41.216V43.52C90.0372 43.76 89.4212 43.936 88.7172 44.048C88.0132 44.176 87.2452 44.24 86.4132 44.24ZM83.0052 37.448H88.4052V36.824C88.4052 36.168 88.2132 35.656 87.8292 35.288C87.4452 34.904 86.7972 34.712 85.8852 34.712C84.8132 34.712 84.0612 34.928 83.6292 35.36C83.2132 35.792 83.0052 36.488 83.0052 37.448ZM93.493 44V32.624H96.493L96.637 33.8C97.149 33.48 97.781 33.192 98.533 32.936C99.301 32.664 100.053 32.48 100.789 32.384V34.832C100.357 34.896 99.885 34.992 99.373 35.12C98.861 35.248 98.373 35.392 97.909 35.552C97.445 35.712 97.053 35.88 96.733 36.056V44H93.493Z" fill="#F5F4FA"/>
<path d="M18.715 39.45C21.835 39.45 24.34 38.775 26.23 37.425C28.12 36.045 29.065 34.215 29.065 31.935C29.065 29.895 28.465 28.17 27.265 26.76C26.035 25.35 24.37 24.075 22.27 22.935C23.44 21.885 24.385 20.85 25.105 19.83C25.795 18.81 26.14 17.61 26.14 16.23C26.14 14.34 25.465 12.765 24.115 11.505C22.765 10.215 20.905 9.57 18.535 9.57C16.195 9.57 14.365 10.185 13.045 11.415C11.695 12.615 11.02 14.22 11.02 16.23C11.02 17.79 11.395 19.125 12.145 20.235C12.895 21.345 14.095 22.44 15.745 23.52L9.085 30.315C8.605 29.295 8.365 28.095 8.365 26.715V25.95H4.63V26.805C4.63 27.945 4.78 29.07 5.08 30.18C5.38 31.26 5.785 32.205 6.295 33.015L2.65 36.705L5.62 39.405L8.86 36.165C9.97 37.305 11.365 38.145 13.045 38.685C14.725 39.195 16.615 39.45 18.715 39.45ZM18.805 21.405C17.515 20.565 16.555 19.815 15.925 19.155C15.295 18.495 14.98 17.595 14.98 16.455C14.98 15.405 15.265 14.58 15.835 13.98C16.375 13.35 17.275 13.035 18.535 13.035C19.825 13.035 20.755 13.365 21.325 14.025C21.895 14.685 22.18 15.495 22.18 16.455C22.18 17.385 21.91 18.225 21.37 18.975C20.8 19.695 19.945 20.505 18.805 21.405ZM18.715 36.03C15.715 36.03 13.42 35.175 11.83 33.465L19.345 25.86C21.025 26.55 22.285 27.375 23.125 28.335C23.935 29.265 24.34 30.435 24.34 31.845C24.34 33.225 23.815 34.275 22.765 34.995C21.715 35.685 20.365 36.03 18.715 36.03Z" fill="#F5F4FA"/>
</svg>
